<svg id="visual" viewBox="0 0 960 300" width="960" height="300" xmlns="http://www.w3.org/2000/svg" xmlns:xlink="http://www.w3.org/1999/xlink" version="1.1"><path d="M0 147L22.8 156.8C45.7 166.7 91.3 186.3 137 186.3C182.7 186.3 228.3 166.7 274 156.7C319.7 146.7 365.3 146.3 411.2 150.2C457 154 503 162 548.8 156C594.7 150 640.3 130 686 126.7C731.7 123.3 777.3 136.7 823 136.8C868.7 137 914.3 124 937.2 117.5L960 111L960 301L937.2 301C914.3 301 868.7 301 823 301C777.3 301 731.7 301 686 301C640.3 301 594.7 301 548.8 301C503 301 457 301 411.2 301C365.3 301 319.7 301 274 301C228.3 301 182.7 301 137 301C91.3 301 45.7 301 22.8 301L0 301Z" fill="#fa7268"></path><path d="M0 150L22.8 151.7C45.7 153.3 91.3 156.7 137 166.7C182.7 176.7 228.3 193.3 274 195.5C319.7 197.7 365.3 185.3 411.2 179.8C457 174.3 503 175.7 548.8 176C594.7 176.3 640.3 175.7 686 170.7C731.7 165.7 777.3 156.3 823 154.3C868.7 152.3 914.3 157.7 937.2 160.3L960 163L960 301L937.2 301C914.3 301 868.7 301 823 301C777.3 301 731.7 301 686 301C640.3 301 594.7 301 548.8 301C503 301 457 301 411.2 301C365.3 301 319.7 301 274 301C228.3 301 182.7 301 137 301C91.3 301 45.7 301 22.8 301L0 301Z" fill="#ee6057"></path><path d="M0 189L22.8 189.3C45.7 189.7 91.3 190.3 137 198.8C182.7 207.3 228.3 223.7 274 228.2C319.7 232.7 365.3 225.3 411.2 214.7C457 204 503 190 548.8 192.3C594.7 194.7 640.3 213.3 686 224C731.7 234.7 777.3 237.3 823 232.2C868.7 227 914.3 214 937.2 207.5L960 201L960 301L937.2 301C914.3 301 868.7 301 823 301C777.3 301 731.7 301 686 301C640.3 301 594.7 301 548.8 301C503 301 457 301 411.2 301C365.3 301 319.7 301 274 301C228.3 301 182.7 301 137 301C91.3 301 45.7 301 22.8 301L0 301Z" fill="#e14e46"></path><path d="M0 218L22.8 222C45.7 226 91.3 234 137 236.2C182.7 238.3 228.3 234.7 274 232.7C319.7 230.7 365.3 230.3 411.2 232.8C457 235.3 503 240.7 548.8 242.3C594.7 244 640.3 242 686 244.7C731.7 247.3 777.3 254.7 823 258.5C868.7 262.3 914.3 262.7 937.2 262.8L960 263L960 301L937.2 301C914.3 301 868.7 301 823 301C777.3 301 731.7 301 686 301C640.3 301 594.7 301 548.8 301C503 301 457 301 411.2 301C365.3 301 319.7 301 274 301C228.3 301 182.7 301 137 301C91.3 301 45.7 301 22.8 301L0 301Z" fill="#d43b35"></path><path d="M0 265L22.8 265C45.7 265 91.3 265 137 264C182.7 263 228.3 261 274 257.2C319.7 253.3 365.3 247.7 411.2 250.2C457 252.7 503 263.3 548.8 269.2C594.7 275 640.3 276 686 276.8C731.7 277.7 777.3 278.3 823 272.8C868.7 267.3 914.3 255.7 937.2 249.8L960 244L960 301L937.2 301C914.3 301 868.7 301 823 301C777.3 301 731.7 301 686 301C640.3 301 594.7 301 548.8 301C503 301 457 301 411.2 301C365.3 301 319.7 301 274 301C228.3 301 182.7 301 137 301C91.3 301 45.7 301 22.8 301L0 301Z" fill="#c72424"></path></svg>